<svg xmlns="http://www.w3.org/2000/svg" viewBox="0 0 2834.6 2834.6"><path d="M84.9,1910c94.1-45.9,195-127.5,295.7-99.4,81.7,22.8,184.4,111.5,266.8,108.7,72.3-21.7-77.8-205.5-100.2-241.2-63.6-101.6-116.8-155.5-92.3-278.6,42.7-214.7,221.6-369.3,405.8-462.6,194.2-98.3,372.2-191.9,539.2-336,77.5-66.9,152.4-138.8,216.4-219.5,27.2-34.4,142-172.9,121.3-219.5-54.2-122.4-329.3,274.7-133-48C1673.2.9,1548.2,6.7,1456.2,1.4c-74.8-4.3-149.8,1.7-223.6,14.9-108.5,19.5-213.3,57.4-312,106.8-93,46.6-170.3,122.2-261,168.9-63.8,32.9-63.8,29.9-144.1,18.1-24.7-3.6-84.4-22.8-107.5-10.8-38.3,20-85.6,134.1-109.8,171.9-22.1,34.5-45.5,68.6-67.2,103.6-8.6,14-.4,32.5,15.7,35l45.3,7.1c27.9,4.3,43.4,35,31,60.7-81.2,167.8-124.8,344.9-136.2,533.7-5.2,84.3,3.7,167.4,2.6,251.3-1.3,103.9-57.8,180.2-107.1,272.4C42.3,1809.9-82.4,1991.6,84.9,1910ZM1267.2,177.2c-1.4-44.4,32.8-81.5,76.3-83s80.1,33.3,81.5,77.7-32.7,81.5-76.3,82.9S1268.7,221.5,1267.2,177.2ZM928.3,189c-26,86.8-17.8,184,30.7,268.6,68,118.7,196.3,179.4,322.3,165.3-131.4,53.1-284.8,1.9-358.2-126.3C866.5,397.8,872.3,279.5,928.3,189ZM246,1095c23.9,123.8,111.9,211.3,202,197.7a121.6,121.6,0,0,0,25.4-6.6,115.6,115.6,0,0,1-42.1,15.4c-84.2,12.6-166.3-73.1-183.5-191.4C247.1,1105,246.5,1100,246,1095ZM2749.8,871c-92.2,49.7-189.8,135.4-291.6,111.5-82.5-19.4-188.6-103.8-270.9-97.6-71.3,24.7,86,202.1,109.7,236.9,67.6,98.8,122.9,150.6,103.3,274.6-34.1,216.3-206.8,378.1-387.1,478.8-190.1,106.3-364.3,207.1-525.4,358-74.8,70-146.8,145-207.5,228.2-25.9,35.5-135,178.6-112.5,224.4,58.9,120,318.1-288.1,134.8,42.4-64.1,115.7,60.6,104.8,152.7,106.3,75,1.3,149.6-7.9,222.8-24.1,107.7-23.9,210.8-66.1,307.5-119.5,91.1-50.4,165.4-129.2,254.1-179.5,62.5-35.6,62.6-32.6,143.3-24.1,24.8,2.6,85.2,19.4,107.8,6.4,37.5-21.6,80.3-137.5,102.9-176.2,20.7-35.5,42.7-70.5,63-106.3,8.1-14.4-.8-32.5-17-34.3l-45.6-5.3c-28-3.2-44.7-33.2-33.3-59.4,74.4-171,110.9-349.8,114.9-538.8,1.8-84.4-10.3-167.1-12.6-251-2.8-103.9,50.6-182.4,96.2-276.6C2796.3,969.3,2913.7,782.7,2749.8,871ZM1637.1,2651.1c3.2,44.3-29.4,82.8-72.9,86.1s-81.3-30-84.5-74.3,29.5-82.8,72.9-86.1S1633.9,2606.8,1637.1,2651.1Zm338.2-25.7c22.6-87.9,10.5-184.6-41.3-267.2-72.7-115.8-203.2-171.2-328.6-151.9,129.2-58.5,284.5-13.6,363,111.5C2028.8,2414.1,2027.7,2532.6,1975.3,2625.4ZM2621.1,1692c-28.7-122.7-120.2-206.5-209.7-189.2a118.5,118.5,0,0,0-25,7.6,114.3,114.3,0,0,1,41.4-17.1c83.6-16.1,169.1,66.2,190.9,183.7Q2620.2,1684.5,2621.1,1692Z"/></svg>