<svg xmlns="http://www.w3.org/2000/svg" viewBox="0 0 600 600"><path d="M411.9,156.6c-5.2-11.7-6.4-21.4-4.1-29.5-9.6-3.2-19.2-6.1-28.9-8.7-1.8,11.6-1.5,24.4,1.6,39.1-9-15.2-13-29.1-12.2-41.8a383.5,383.5,0,0,0-41.8-7.8,103.1,103.1,0,0,0,15.3,57.5c-18.4-18.5-28.9-38.1-29.6-59.1a315.3,315.3,0,0,0-38.9-.9c-.3,25.7,6.3,52.2,21.2,79.8-23.6-26.8-37.4-53-39.7-78.5a280.5,280.5,0,0,0-33.4,5.6c6.6,31.4,22.5,62,46.5,92.1q-56.1-39.7-66.2-86.7c-8.3,2.6-16.7,5.7-25,9.2V97.8c7.7-2.1,15.2-3.9,22.7-5.5Q200.9,49,238,0c-15.1,30.4-21.4,59.9-19.7,88.7a359.4,359.4,0,0,1,37.6-4.5c4.4-23.6,19.6-46.5,47.2-68.8-14.3,22.2-23.8,44.8-27.8,68a297.3,297.3,0,0,1,39.4,2.2c4.5-16.7,15.2-34.3,32.9-52.8-9,18.6-15.8,36.9-19,54.9a240.7,240.7,0,0,1,43.5,12c5.6-12.9,17.1-24.2,34.5-34.1-10.6,11.6-19.1,23.9-24,38.3a232.9,232.9,0,0,1,28.9,15c5-7.3,13.5-13,25-17.3a59.4,59.4,0,0,0-18.1,21.7c7,4.6,38.6,23.2,45.3,28.7-7.7-3.1-40.2-19.5-48-22.2A72.9,72.9,0,0,0,411.9,156.6ZM600,105.4c-42.8,22.7-83.3,35.9-119.5,31.7,3.1,14.4-.5,26.4-16.6,34,31.5,26.3,55,64.5,72,112.5C533,219.4,549.7,159.1,600,105.4ZM0,193.7C18.5,222,50.7,239.2,89.8,251,280.7,85.7,91-22.3,0,193.7ZM91.7,179,78.9,191.7,65.4,178.2,51.8,191.7,39.1,179l13.5-13.6L39.1,151.9l12.7-12.8,13.6,13.6,13.5-13.6,12.8,12.8L78.1,165.4Zm96.4,264.4c5.2,11.7,6.4,21.4,4.1,29.5,9.6,3.2,19.2,6.1,28.9,8.7,1.8-11.6,1.5-24.4-1.6-39.1,9,15.2,13,29.1,12.2,41.8a383.5,383.5,0,0,0,41.8,7.8,103.1,103.1,0,0,0-15.3-57.5c18.4,18.5,28.9,38.1,29.6,59.1a315.3,315.3,0,0,0,38.9.9c.3-25.7-6.3-52.2-21.2-79.8,23.6,26.8,37.4,53,39.7,78.5a280.5,280.5,0,0,0,33.4-5.6c-6.6-31.4-22.5-62-46.5-92.1q56.1,39.8,66.2,86.7c8.3-2.6,16.7-5.7,25-9.2v29.1c-7.7,2.1-15.2,3.9-22.7,5.5Q399.1,551.1,362,600c15.1-30.4,21.4-59.9,19.7-88.7a359.4,359.4,0,0,1-37.6,4.5c-4.4,23.6-19.6,46.5-47.2,68.8,14.3-22.2,23.8-44.8,27.8-68a297.3,297.3,0,0,1-39.4-2.2c-4.5,16.7-15.2,34.3-32.9,52.8,9-18.6,15.8-36.9,19-54.9a240.7,240.7,0,0,1-43.5-12c-5.6,12.9-17.1,24.2-34.5,34.1,10.6-11.6,19.1-23.9,24-38.3a232.9,232.9,0,0,1-28.9-15c-5,7.3-13.5,13-25,17.3a59.4,59.4,0,0,0,18.1-21.7c-7-4.6-38.8-26.9-45.5-32.3,7.7,3,40.4,23.1,48.2,25.8A72.9,72.9,0,0,0,188.1,443.4ZM0,497.8c42.8-22.7,83.3-35.9,119.5-31.7-3.1-14.4.5-26.4,16.6-34-31.5-26.3-55-64.5-72-112.5C67,383.8,50.3,444.1,0,497.8ZM510.2,349C319.3,514.3,509,622.3,600,406.3,581.5,378.1,549.3,360.8,510.2,349Zm50.7,99.1-12.7,12.8-13.6-13.6-13.5,13.6-12.8-12.8,13.6-13.5L508.3,421l12.8-12.7,13.5,13.5,13.6-13.5L560.9,421l-13.5,13.6Z"/></svg>