<svg xmlns="http://www.w3.org/2000/svg" viewBox="0 0 510.9 510.9"><defs><style>.a{fill:none;stroke:#000;stroke-miterlimit:10;stroke-width:10.87px;}</style></defs><path class="a" d="M183.3,359.2c61.5-39.8,242.3-12.7,270.3,49.4,0,0-74.5,61.8-172,61.8s-142.2-58.7-142.2-58.7c-26.3,1.6-48.2-3.9-66.3-15.5m154.1,67.9,0,0L195,497.9c34.2,7.5,68.3,10,102.1,4.8l41.1-39M148,385.9c24.8-39.8-3.4-70.3-58.8-96.2-5.8,23.4-1.5,48.3,14.9,74.9-21.2-16.8-50.4-14.7-73.9-7.4m230.3-16.7c-6.3-24.7-19.6-35-38.5-33.4l-32,48.2m162.1-5.4c-19.4,37.6-20.8,73.8,7.4,107.9M26.2,155.6a245.1,245.1,0,0,0-15.4,48.3M5.4,255.4a249.4,249.4,0,0,0,99,199.1m281.1-27.6a14.2,14.2,0,1,0-14.2-14.2A14.3,14.3,0,0,0,385.5,426.9ZM283.7,46.7m154.1,68c-18.1-11.6-40-17.1-66.3-15.5,0,0-44.8-58.7-142.3-58.7S57.3,102.2,57.3,102.2c27.9,62.2,208.7,89.3,270.3,49.5m-43.9-105,32.2-33.8C281.6,5.5,247.6,3,213.7,8.2l-41.1,39M362.9,125c-24.9,39.7,3.4,70.3,58.8,96.2,5.7-23.5,1.5-48.3-14.9-74.9,21.2,16.8,50.4,14.7,73.8,7.3M250.3,170.4c6.4,24.6,19.6,35,38.6,33.3l31.9-48.1m-162,5.4c19.4-37.6,20.8-73.9-7.4-107.9M484.7,355.3A247.2,247.2,0,0,0,500.1,307m5.3-51.6A249.6,249.6,0,0,0,406.5,56.3M125.4,84a14.2,14.2,0,1,0,14.2,14.2A14.2,14.2,0,0,0,125.4,84Z"/></svg>