<svg xmlns="http://www.w3.org/2000/svg" viewBox="0 0 500 500"><path d="M404.2,62.9C329.3,29,232,42.3,172.4,100.3c-7.2,7-55.9,53.4-33.8,63.1,19.8,8.7,13.4-13.4,50.1-29.7,8-3.6,60.2-21.8,100.5,6.3,13.5,9.4,20.8,28.2,39.4,23.6-9.3,15.9-53.9,28.7-53.9,28.7s45.5,13.8,48.9,49.9c5.7,31,28-38.4,20.5-71.6,15.4,40.7,98.4,46.4,132.1,19.4-6.8-2.2-41.5-18-46.3-23.2,2.7,3,56.4,19,68,12.1C513.9,133.9,433.3,76,404.2,62.9ZM239,117.2a5.1,5.1,0,0,1-4.4,2.4,5.4,5.4,0,0,1-2.7-.7l-21.6-13.2a8.6,8.6,0,0,1-3.8-5.3,8.3,8.3,0,0,1,1-6.5l13.1-21.4a5.1,5.1,0,1,1,8.7,5.4L217.1,97.8l20.2,12.4A5.1,5.1,0,0,1,239,117.2ZM399.9,80.6,342.1,94.2a3,3,0,0,0-2.2,3.7l13.7,58.4a5,5,0,0,1-3.8,6.1l-1.1.2a5,5,0,0,1-5-4l-13.8-58.4a13.5,13.5,0,0,1,1.6-10,13.2,13.2,0,0,1,8.3-5.9l57.8-13.7a5.1,5.1,0,0,1,6.1,3.8A5,5,0,0,1,399.9,80.6Zm40.5,70.3A15.6,15.6,0,1,1,456,135.3,15.6,15.6,0,0,1,440.4,150.9ZM299.3,0c43,31,77.8-17,105.7,57.6-32.6-15.1-69.6-20.8-105.2-18C288.8,32.3,286.3,20.6,299.3,0ZM173.9,193a66.6,66.6,0,0,1-24.6,53.9,66.2,66.2,0,0,1-27.2-51.4,7.6,7.6,0,0,0-.1-1.5,3.9,3.9,0,0,0-6-3.2h-.1a66.3,66.3,0,0,1-59,5.7,66.3,66.3,0,0,1,75.5-58.6c-4.6,8-6.4,14.7-5.4,20,.6,3.5,2.7,8.3,9.1,11.1,14.5,6.4,20.6-.9,26.6-7.9l1-1.3A66.2,66.2,0,0,1,173.9,193ZM95.8,437.1C170.7,471,268,457.7,327.6,399.7c7.2-7,55.9-53.4,33.8-63.1-19.8-8.7-13.4,13.4-50.1,29.7-8,3.6-60.2,21.8-100.5-6.3-13.5-9.4-20.8-28.2-39.4-23.6,9.3-15.9,53.9-28.7,53.9-28.7s-45.5-13.8-48.9-49.9c-5.7-31-28,38.4-20.5,71.6C140.5,288.7,57.5,283,23.8,310c6.8,2.2,41.5,18,46.3,23.2-2.7-3-56.4-19-68-12.1C-13.9,366.1,66.7,424,95.8,437.1ZM261,382.8a5.1,5.1,0,0,1,4.4-2.4,5.4,5.4,0,0,1,2.7.7l21.6,13.2a8.6,8.6,0,0,1,3.8,5.3,8.3,8.3,0,0,1-1,6.5l-13.1,21.4a5.1,5.1,0,1,1-8.7-5.4l12.2-19.9-20.2-12.4A5.1,5.1,0,0,1,261,382.8ZM100.1,419.4l57.8-13.6a3,3,0,0,0,2.2-3.7l-13.7-58.4a5,5,0,0,1,3.8-6.1l1.1-.2a5,5,0,0,1,5,4l13.8,58.4a13.5,13.5,0,0,1-1.6,10,13.2,13.2,0,0,1-8.3,5.9l-57.8,13.7a5.1,5.1,0,0,1-6.1-3.8A5,5,0,0,1,100.1,419.4ZM59.6,349.1A15.6,15.6,0,1,1,44,364.7,15.6,15.6,0,0,1,59.6,349.1ZM200.7,500c-43-31-77.8,17-105.7-57.6,32.6,15.1,69.6,20.8,105.2,18C211.2,467.7,213.7,479.4,200.7,500ZM326.1,307a66.6,66.6,0,0,1,24.6-53.9,66.2,66.2,0,0,1,27.2,51.4,7.6,7.6,0,0,0,.1,1.5,3.9,3.9,0,0,0,6,3.2h.1a66.3,66.3,0,0,1,59-5.7,66.3,66.3,0,0,1-75.5,58.6c4.6-8,6.4-14.7,5.4-20-.6-3.5-2.7-8.3-9.1-11.1-14.5-6.4-20.6.9-26.6,7.9l-1,1.3A66.2,66.2,0,0,1,326.1,307Z"/></svg>