<svg xmlns="http://www.w3.org/2000/svg" viewBox="0 0 726 726"><path d="M725.8,505.6c-1.7-21.7-58.6-63.8-54.4-34.4,3.6,25.2.3,66.3-12.1,86.3-1.2,1.9-1.3,1.1-2.4,1.3s-1.4-1.5-1.1-2.3c27.5-101-2.4-188.8-102-229-31.2-12.7-65.5.1-95.9,6-9.1,1.8-18.7,2.9-20.4-5.5-15.8-77.9-123.4-72.4-142.4-3.3-4.3,15.6-25.5,12.4-41.3,9.6h-.7c-30.3-8.6-44.1-28.1-57.8-55.3-7.8-15.3-11.2-29.9-10.6-46.4.1-1.9.4-2.9.5-4.5s1.3-1.1,1.7-.2c8.3,17.4,14.7,27.7,31.9,11.7.3-.4.4-.8.8-1,14.5-8.9,7.8-23.7-3.6-26.7-43.7-11.5-70.7-90.6-48.7-127.5.9-1.5,1.2-1.8,2.5-2.1s2.3,1.2,2.3,2.3c.2,6.2-.5,14.7-.1,20.6,1.9,26.6,12.3,71.9,46.2,67.5,39.8-5.1,72.4-49.7,95.1-76.5,16.6-19.6,19.4-54.6-6.4-29.1-8.9,8.8-29.6,28.5-33.2,27.4-22.2-6.9,13.8-42,24.1-44.8,2-.5,8.7-6.5,8.7-8.3,1.6-81.7-186.3-34.7-214.1,72.8-.9,3.4-6.5,7.9-10.6,8.7-41.5,8-85.1,53.4-81.6,97.5,1.7,21.7,58.6,63.8,54.4,34.4-3.6-25.2-.3-66.3,12.1-86.3,1.2-1.9,1.3-1.1,2.4-1.3s1.4,1.5,1.1,2.3c-27.5,101,2.4,188.8,102,229,31.2,12.7,65.5-.1,95.9-6,9.1-1.8,18.5-2.9,20.4,5.5,17.9,80.2,125.2,82.2,142.4,3.3,3.5-15.8,25.5-12.4,41.3-9.6h.7c30.3,8.6,44.1,28.1,57.8,55.3,7.8,15.3,11.2,29.9,10.6,46.4-.1,1.9-.4,2.9-.5,4.5s-1.3,1.1-1.7.2c-8.3-17.4-14.7-27.7-31.9-11.7-.3.4-.4.8-.8,1-14.5,8.9-7.8,23.7,3.6,26.7,43.7,11.5,70.7,90.6,48.7,127.5-.9,1.5-1.2,1.8-2.5,2.1s-2.3-1.2-2.3-2.3c-.2-6.2.5-14.7.1-20.6-1.9-26.6-12.3-71.9-46.2-67.5-39.8,5.1-72.4,49.7-95.1,76.5-16.6,19.6-19.4,54.6,6.4,29.1,8.9-8.8,29.6-28.5,33.2-27.4,22.2,6.9-13.8,42-24.1,44.8-2,.5-8.7,6.5-8.7,8.3-1.6,81.7,186.3,34.7,214.1-72.8.9-3.4,6.5-7.9,10.6-8.7C685.7,595.1,729.3,549.7,725.8,505.6ZM222,26.8c12.2-1.8,22.1,6.7,23.4,19.1s-6.7,23.4-18.8,25.2-22-6.6-23.3-18.9S209.8,28.6,222,26.8ZM396.6,377.7c-17.8,46.7-47.5,78.6-66.4,71.1s-19.7-51.5-1.9-98.4,47.5-78.6,66.4-71.1S414.5,330.8,396.6,377.7ZM504,699.1c-12.2,1.8-22.1-6.7-23.4-19.1s6.7-23.4,18.8-25.2,22,6.6,23.3,18.9S516.2,697.3,504,699.1Z"/></svg>