<svg xmlns="http://www.w3.org/2000/svg" viewBox="0 0 344 344"><path d="M245.3,269.6c-5.4-5.5-11.7-14-21.9-19.3-13.3-6.9-33.1-13.9-49.4-15.8a220,220,0,0,0-65.5-40.8c3.3,5.7,6,9.7,9.8,15.6s9.9,15.2,12.4,23.6c-15.9-4.7-33.2-10.4-45.9-20.2s-22.4-21.6-31.2-36.5c-10.3-17.6-16.2-37.4-16.2-57.8,11-15,24.7-26.6,40.3-36.9-11-1.7-22-2.4-32.6-5.8C38.4,63.2,7.3,12.3,0,0,5.6,24.8,25,85.7,26,109.5,3.6,164.9,11.7,224,50.5,271.5c15.7,19.3,44.6,33.3,68,44-2,6.5-5.5,10.9-10.8,15.2S95.1,339.3,89,343.5c12.9-1.2,28.2-3,40.1-6.2s19.3-7.7,29.8-12.6a49.1,49.1,0,0,0,5.5.4c20.8.1,44.3.1,62.8-9.2s22.4-9.6,25-30.7C252.9,280.9,250.8,275.1,245.3,269.6Zm-25.8,44.6c-2.7,0-5.7-2.1-6.2-4.7s1.9-6.8,6-7.3,5.6,1.6,7.3,4.2a4,4,0,0,0-3.5-1.7c-1.8.3-3.2,1.3-3,3.2s1.8,2.8,3.7,2.7,2.5-1.2,3.1-2.6C225.8,311.8,223.9,314.2,219.5,314.2Zm3.3-43.1a7.5,7.5,0,0,1-8-6.1c-.8-3.8,1.3-6.6,5.4-6.9s6.7,2.3,8.4,5.7c-1.1-1.7-2.3-2.9-4.6-2.5a2.8,2.8,0,0,0-2.3,2.7,3.7,3.7,0,0,0,3.9,3.7c2.1,0,2.6-1.4,3.1-2.9C228.2,268.2,226.8,270.9,222.8,271.1Zm18.3,26.7c-.6.1-.2-.9-.3-1.2s-.5-.8-.5-1.2.4-.7.6-1-.3-1.3.3-1.2,1.2,1.4,1.2,2.3S242.2,297.6,241.1,297.8Zm1.4-15c-.6.1-.2-.9-.4-1.2a4.5,4.5,0,0,1-.6-1.2c0-.4.4-.7.6-1s-.3-1.3.3-1.2,1.3,1.4,1.3,2.4S243.6,282.6,242.5,282.8ZM99,74.5c5.4,5.5,11.7,14,21.9,19.3,13.3,6.9,33.1,13.9,49.4,15.8a220,220,0,0,0,65.5,40.8c-3.3-5.7-6-9.7-9.8-15.6s-9.9-15.2-12.4-23.6c15.9,4.7,33.2,10.4,45.9,20.2,14.2,10.9,22.4,21.6,31.2,36.5,10.3,17.6,16.2,37.4,16.2,57.8-11,15-24.7,26.6-40.3,36.9,11,1.7,22,2.4,32.6,5.8C306,281,336.7,331.7,344,344c-2.9-23.7-24.6-85.6-25.6-109.3,22.4-55.4,14.3-114.5-24.5-162-15.7-19.3-44.6-33.3-68-44,2-6.5,5.5-10.9,10.8-15.2S249.3,4.9,255.4.7c-12.9,1.2-28.2,3-40.1,6.2S196,14.6,185.5,19.5a49.1,49.1,0,0,0-5.5-.4c-20.8-.1-44.3-.1-62.8,9.2S94.8,37.9,92.2,59C91.5,63.2,93.6,69,99,74.5ZM124.9,30c2.7,0,5.7,2.1,6.2,4.7s-1.9,6.8-6,7.3-5.6-1.6-7.3-4.2a4,4,0,0,0,3.5,1.7c1.8-.3,3.2-1.3,3-3.2s-1.8-2.8-3.7-2.7-2.5,1.2-3.1,2.6C118.6,32.4,120.4,30,124.9,30Zm-3.3,43a7.5,7.5,0,0,1,8,6.1c.8,3.8-1.3,6.6-5.4,6.9s-6.7-2.3-8.4-5.7c1.1,1.7,2.3,2.9,4.6,2.5a2.8,2.8,0,0,0,2.3-2.7,3.7,3.7,0,0,0-3.9-3.7c-2.1,0-2.6,1.4-3.1,2.9C116.2,76,117.6,73.2,121.6,73ZM103.2,46.4c.6-.1.2.9.3,1.2s.5.8.5,1.2-.4.7-.6,1,.3,1.3-.3,1.2-1.2-1.4-1.2-2.3S102.2,46.6,103.2,46.4Zm-1.3,15c.6-.1.2.9.4,1.2a4.5,4.5,0,0,1,.6,1.2c0,.4-.4.7-.6,1s.3,1.3-.3,1.2-1.3-1.4-1.3-2.4S100.8,61.5,101.9,61.4Z"/></svg>